<?xml version="1.0" encoding="UTF-8" standalone="no"?>
<!-- Created with Inkscape (http://www.inkscape.org/) -->

<svg
   width="800"
   height="800"
   viewBox="0 0 211.66667 211.66666"
   version="1.1"
   id="svg1"
   xml:space="preserve"
   inkscape:version="1.4 (86a8ad7, 2024-10-11)"
   sodipodi:docname="logo.svg"
   xmlns:inkscape="http://www.inkscape.org/namespaces/inkscape"
   xmlns:sodipodi="http://sodipodi.sourceforge.net/DTD/sodipodi-0.dtd"
   xmlns="http://www.w3.org/2000/svg"
   xmlns:svg="http://www.w3.org/2000/svg"><sodipodi:namedview
     id="namedview1"
     pagecolor="#ffffff"
     bordercolor="#000000"
     borderopacity="0.25"
     inkscape:showpageshadow="2"
     inkscape:pageopacity="0.0"
     inkscape:pagecheckerboard="0"
     inkscape:deskcolor="#d1d1d1"
     inkscape:document-units="px"
     inkscape:zoom="0.74208053"
     inkscape:cx="408.31148"
     inkscape:cy="441.32677"
     inkscape:window-width="1920"
     inkscape:window-height="1051"
     inkscape:window-x="-9"
     inkscape:window-y="-9"
     inkscape:window-maximized="1"
     inkscape:current-layer="layer1" /><defs
     id="defs1" /><g
     inkscape:label="layer"
     inkscape:groupmode="layer"
     id="layer1"><circle
       style="fill:#8993be;fill-opacity:1;stroke-width:0.327919"
       id="path1"
       cx="105.83334"
       cy="105.83334"
       r="105.83334"
       inkscape:label="bg" /><g
       id="g3"
       inkscape:label="logo"
       transform="matrix(1.1,0,0,1.0999999,-10.583334,-10.612436)"><path
         d="m 153.37508,122.3887 c 10.27476,0 18.60408,8.32883 18.60408,18.60295 v 7.48321 c 0,9.04249 -3.94782,17.63442 -10.80916,23.52466 -12.94388,11.11193 -31.46805,16.54257 -55.36393,16.54257 -23.891751,0 -42.403379,-5.42876 -55.325917,-16.5383 C 43.628711,166.11376 39.6875,157.52829 39.6875,148.49337 v -7.50172 c 0,-10.27412 8.329333,-18.60295 18.604086,-18.60295 z m -48.40775,-99.154462 0.84148,-0.05663 c 3.13951,0 5.73413,2.332846 6.14476,5.359553 l 0.0562,0.841436 -0.007,6.192722 28.94387,0.0043 c 10.27475,0 18.60408,8.328833 18.60408,18.602968 v 37.243892 c 0,10.274131 -8.32933,18.602961 -18.60408,18.602961 H 70.665023 c -10.274752,0 -18.604083,-8.32883 -18.604083,-18.602961 v -37.24398 c 0,-10.274135 8.329331,-18.602966 18.604083,-18.602966 l 28.9359,-0.0043 0.007,-6.192721 c 0,-3.139318 2.332977,-5.733771 5.359877,-6.144382 l 0.84147,-0.05663 z m -17.771219,37.14524 c -5.704946,0 -10.329719,4.624497 -10.329719,10.329103 0,5.704607 4.624773,10.329103 10.329719,10.329103 5.704947,0 10.329732,-4.624496 10.329732,-10.329103 0,-5.704606 -4.624785,-10.329103 -10.329732,-10.329103 z m 37.148119,0 c -5.70496,0 -10.32973,4.624497 -10.32973,10.329103 0,5.704607 4.62477,10.329103 10.32973,10.329103 5.70495,0 10.32972,-4.624496 10.32972,-10.329103 0,-5.704606 -4.62477,-10.329103 -10.32972,-10.329103 z"
         id="🎨-Color"
         style="fill:#232531;fill-opacity:1;fill-rule:nonzero;stroke:none;stroke-width:8.26824"
         inkscape:label="bot" /><path
         fill-rule="evenodd"
         clip-rule="evenodd"
         fill="#ffffff"
         d="m 54.511508,150.94648 c 12.373823,-5.40504 20.611209,-8.9965 24.747574,-10.73892 11.772729,-4.94272 14.247486,-5.79614 15.838386,-5.8317 0.353542,0 1.131325,0.071 1.661619,0.49783 0.42424,0.35559 0.530313,0.81787 0.601022,1.17345 0.07077,0.35559 0.141417,1.10234 0.07077,1.67129 -0.636366,6.75624 -3.393946,23.14913 -4.808075,30.68772 -0.601012,3.20035 -1.767682,4.26713 -2.898997,4.37381 -2.474746,0.21337 -4.348501,-1.63573 -6.717174,-3.20034 -3.747479,-2.4536 -5.833338,-3.98266 -9.474764,-6.40069 -4.207064,-2.77364 -1.484848,-4.3027 0.91921,-6.79185 0.636356,-0.64007 11.489905,-10.59672 11.70202,-11.48571 0.03539,-0.10664 0.03539,-0.53337 -0.212115,-0.74672 -0.24748,-0.21336 -0.601012,-0.14224 -0.883846,-0.0712 -0.388886,0.0712 -6.328287,4.05375 -17.888911,11.91239 -1.696984,1.17345 -3.217186,1.7424 -4.596001,1.70684 -1.520213,-0.0357 -4.41922,-0.85344 -6.611153,-1.5646 -2.651527,-0.85342 -4.772741,-1.31571 -4.59598,-2.8092 0.106063,-0.78231 1.166669,-1.56462 3.146487,-2.38248 z"
         id="path2"
         style="fill:#8993be;fill-opacity:1;stroke-width:0.354564"
         inkscape:label="telegram" /><g
         id="g2"
         inkscape:label="php"><path
           d="m 124.47987,161.86827 c -0.23973,-1.56427 -0.899,-2.83485 -2.49922,-3.44928 -0.62631,-0.23973 -1.16871,-0.67725 -1.78602,-0.95295 -0.70122,-0.31465 -1.41444,-0.6143 -2.15462,-0.8091 -0.56038,-0.14983 -1.08179,0.10193 -1.41443,0.59336 -0.31465,0.46149 -0.0868,0.89601 0.1768,1.28257 0.29668,0.43453 0.6263,0.84807 0.95894,1.2556 0.5514,0.67726 1.13575,1.32753 1.67215,2.01388 0.51244,0.65627 0.94995,1.38447 0.87502,2.25351 -0.16481,1.90586 -1.02785,3.48522 -2.41831,4.77071 -0.15283,0.13785 -0.42253,0.23673 -0.62031,0.21875 -0.88702,-0.0959 -1.69313,-0.43151 -2.3434,-1.05183 -0.74618,-0.71021 -0.6323,-1.54628 0.26069,-2.06471 0.21278,-0.12286 0.43453,-0.23675 0.62931,-0.38658 0.54539,-0.41054 0.72819,-1.11176 0.43153,-1.72009 -0.14085,-0.29368 -0.29968,-0.61133 -0.53341,-0.82408 -1.14173,-1.03985 -2.26259,-2.11277 -3.48523,-3.05961 -2.96383,-2.30157 -4.48605,-5.34608 -4.71989,-9.0321 -0.26369,-4.09357 0.68626,-7.91434 2.84686,-11.41157 0.81809,-1.32751 1.77103,-2.59222 3.2334,-3.24839 0.9949,-0.44651 2.08571,-0.69823 3.14963,-0.97692 2.92786,-0.77015 5.88248,-1.3485 8.9302,-0.83308 2.62509,0.44051 4.54605,1.79201 5.42708,4.37217 0.57837,1.68712 0.71621,3.43119 0.53641,5.21731 -0.35361,3.50922 -2.94573,6.64673 -6.32608,7.57571 -1.4654,0.40155 -2.2655,0.1768 -3.14652,-1.04284 -0.63231,-0.87804 -1.15672,-1.83398 -1.72309,-2.76006 -0.084,-0.13784 -0.14384,-0.29667 -0.21577,-0.4435 -0.0689,-0.14684 -0.14383,-0.28768 -0.21576,-0.43451 0.21276,1.52231 0.56638,2.98778 1.39645,4.29424 0.44951,0.7102 1.04883,1.23463 1.92687,1.31254 3.23043,0.29068 4.61144,-1.03936 6.54729,-3.63758 2.1666,-2.90689 3.98924,-5.98196 3.36283,-9.50307 -0.12286,-0.69522 -0.32963,-1.37547 -0.47647,-2.06769 -0.0989,-0.44651 0.0778,-0.77615 0.51842,-0.93197 0.20378,-0.0689 0.41355,-0.12587 0.61733,-0.16782 2.64317,-0.56936 5.31621,-0.75815 8.01023,-0.48546 3.0567,0.30566 5.94849,1.14473 8.53464,2.84394 4.0486,2.66406 6.55683,6.45495 7.92031,11.03997 0.19779,0.66527 0.22775,1.39346 0.24574,2.09478 0.0121,0.4675 -0.28768,0.59035 -0.6443,0.29667 -0.39255,-0.32064 -0.75215,-0.68623 -1.09079,-1.06382 -0.31464,-0.35661 -0.56636,-0.76415 -0.87202,-1.13874 -0.23674,-0.29367 -0.44352,-0.24872 -0.55739,0.11688 -0.0719,0.22175 -0.13485,0.4405 -0.19778,0.66227 -0.70722,2.52319 -1.82198,4.82466 -3.62897,6.7636 -0.25174,0.27269 -0.47649,0.67725 -0.50644,1.03684 -0.0778,0.99491 -0.13486,2.0108 -0.0389,3.00267 0.19777,2.13076 0.50643,4.2523 0.74617,6.38005 0.13485,1.20166 -0.25172,1.90889 -1.38146,2.32552 -0.79412,0.29067 -1.64518,0.50345 -2.48426,0.56337 -1.33651,0.0929 -2.68501,0.0269 -4.02753,0.0269 -0.036,-1.49834 0.0929,-2.9698 -1.31555,-3.77291 0.2727,-1.11177 0.58735,-2.1666 0.77614,-3.2454 0.15583,-0.89601 0.024,-1.77704 -0.60533,-2.51123 -0.59034,-0.69222 -1.33052,-0.88101 -2.00788,-0.48546 -2.04073,1.18967 -4.16249,1.19568 -6.3231,0.41653 -0.99188,-0.35959 -1.68412,-0.15581 -2.23261,0.74918 -0.59035,0.97392 -0.83907,2.0677 -0.77315,3.17358 0.084,1.39346 0.32664,2.77194 0.51244,4.15939 0.10193,0.77615 0.0151,0.97692 -0.75517,1.1747 -1.71109,0.43452 -3.45217,0.48247 -5.20234,0.34162 -0.0929,-0.009 -0.18578,-0.0479 -0.24572,-0.0629 -0.0869,-1.45339 0.0658,-2.9638 -1.66615,-3.73694 0.76716,-1.62721 0.66227,-3.31434 0.39856,-5.00148 l -0.007,-0.0151 z m -10.34464,-5.70268 c 0.25473,-0.23974 0.4585,-0.61432 0.53042,-0.95894 0.1798,-0.86304 -0.46747,-2.01976 -1.21664,-2.34041 -0.39857,-0.1738 -0.74619,-0.11086 -1.02787,0.20677 -0.68625,0.77615 -1.36349,1.56127 -2.03785,2.3495 -0.11386,0.13486 -0.21575,0.29368 -0.29666,0.4525 -0.2697,0.51843 -0.11086,0.89601 0.46448,1.03686 0.34761,0.0868 0.70721,0.1049 1.06382,0.15584 0.92897,-0.0899 1.82797,-0.24575 2.5202,-0.89903 v -0.003 z m 0.0778,-8.62754 c -0.003,-0.61732 -0.51841,-1.13275 -1.12674,-1.13575 -0.6263,-0.003 -1.1657,0.55738 -1.14474,1.1747 0.0269,0.6203 0.54241,1.11776 1.15973,1.10578 0.62331,-0.009 1.12076,-0.51842 1.11475,-1.14174 z"
           id="path1-7"
           style="fill:#8993be;fill-opacity:1;stroke-width:0.0998889"
           sodipodi:nodetypes="cccccccccccccccccccccccccccccccccccccccccccccccccccccccccccccccccccccccccccccccccccc" /><g
           id="g1"
           transform="matrix(0.21246587,0,0,0.21246587,131.56416,144.70113)"
           style="fill:#232531;fill-opacity:1"
           inkscape:label="g3"><path
             d="m 7.579,10.123 h 14.204 c 4.169,0.035 7.19,1.237 9.063,3.604 1.873,2.367 2.491,5.6 1.855,9.699 -0.247,1.873 -0.795,3.71 -1.643,5.512 -0.813,1.802 -1.943,3.427 -3.392,4.876 -1.767,1.837 -3.657,3.003 -5.671,3.498 -2.014,0.495 -4.099,0.742 -6.254,0.742 H 9.381 L 7.367,48.124 H 0 L 7.579,10.123 v 0 m 6.201,6.042 -3.18,15.9 c 0.212,0.035 0.424,0.053 0.636,0.053 0.247,0 0.495,0 0.742,0 3.392,0.035 6.219,-0.3 8.48,-1.007 2.261,-0.742 3.781,-3.321 4.558,-7.738 0.636,-3.71 0,-5.848 -1.908,-6.413 -1.873,-0.565 -4.222,-0.83 -7.049,-0.795 -0.424,0.035 -0.83,0.053 -1.219,0.053 -0.353,0 -0.724,0 -1.113,0 l 0.053,-0.053"
             id="path1-1"
             style="fill:#232531;fill-opacity:1" /><path
             d="m 41.093,0 h 7.314 L 46.34,10.123 h 6.572 c 3.604,0.071 6.289,0.813 8.056,2.226 1.802,1.413 2.332,4.099 1.59,8.056 l -3.551,17.649 h -7.42 L 54.979,21.2 c 0.353,-1.767 0.247,-3.021 -0.318,-3.763 -0.565,-0.742 -1.784,-1.113 -3.657,-1.113 L 45.121,16.271 40.775,38.054 H 33.461 L 41.093,0 v 0"
             id="path2-1"
             style="fill:#232531;fill-opacity:1" /><path
             d="m 70.412,10.123 h 14.204 c 4.169,0.035 7.19,1.237 9.063,3.604 1.873,2.367 2.491,5.6 1.855,9.699 -0.247,1.873 -0.795,3.71 -1.643,5.512 -0.813,1.802 -1.943,3.427 -3.392,4.876 -1.767,1.837 -3.657,3.003 -5.671,3.498 -2.014,0.495 -4.099,0.742 -6.254,0.742 h -6.36 L 70.2,48.124 h -7.367 l 7.579,-38.001 v 0 m 6.201,6.042 -3.18,15.9 c 0.212,0.035 0.424,0.053 0.636,0.053 0.247,0 0.495,0 0.742,0 3.392,0.035 6.219,-0.3 8.48,-1.007 2.261,-0.742 3.781,-3.321 4.558,-7.738 0.636,-3.71 0,-5.848 -1.908,-6.413 -1.873,-0.565 -4.222,-0.83 -7.049,-0.795 -0.424,0.035 -0.83,0.053 -1.219,0.053 -0.353,0 -0.724,0 -1.113,0 l 0.053,-0.053"
             id="path3"
             style="fill:#232531;fill-opacity:1" /></g></g></g></g></svg>
