<?xml version="1.0"?>
<svg xmlns="http://www.w3.org/2000/svg" xmlns:xlink="http://www.w3.org/1999/xlink" xmlns:svgjs="http://svgjs.com/svgjs" version="1.1" width="512" height="512" x="0" y="0" viewBox="0 0 32.001 32.001" style="enable-background:new 0 0 512 512" xml:space="preserve" class=""><g>
<g xmlns="http://www.w3.org/2000/svg">
	<g>
		<path d="M24.66,23.699c0-2.363-1.916-4.279-4.278-4.279h-1.646v-0.852c1.532-0.692,2.76-1.944,3.418-3.497    c1.354-0.194,2.396-1.356,2.396-2.766c0-1.457-1.115-2.653-2.538-2.784c-0.363-0.748-0.865-1.416-1.467-1.977l2.279-6.524    c0.141-0.399-0.071-0.838-0.471-0.978c-0.4-0.14-0.839,0.072-0.979,0.472l-2.125,6.082c-0.96-0.538-2.064-0.849-3.242-0.854l0,0    c-0.002,0-0.005,0-0.008,0c-0.003,0-0.005,0-0.008,0l0,0c-1.175,0.007-2.28,0.316-3.24,0.854l-2.124-6.082    c-0.14-0.399-0.578-0.611-0.979-0.472c-0.4,0.14-0.611,0.578-0.471,0.978l2.279,6.524c-0.602,0.561-1.103,1.229-1.467,1.977    C8.565,9.653,7.45,10.85,7.45,12.307c0,1.408,1.042,2.57,2.396,2.767c0.659,1.552,1.885,2.804,3.418,3.496v0.852h-1.645    c-2.363-0.001-4.278,1.915-4.278,4.278c0,2.338,1.876,4.237,4.206,4.276v4.025h3.292v-4.023h1.154h0.016h1.154v4.023h3.291v-4.024    C22.783,27.937,24.66,26.038,24.66,23.699z M20.973,21.271l0.993,0.994c-0.111,0.071-0.245,0.114-0.387,0.114    c-0.398,0-0.721-0.322-0.721-0.72C20.859,21.516,20.902,21.383,20.973,21.271z M20.973,23.182l0.993,0.994    c-0.111,0.072-0.245,0.115-0.387,0.115c-0.398,0-0.721-0.323-0.721-0.722C20.859,23.427,20.902,23.294,20.973,23.182z     M11.126,12.454c0-2.691,2.179-4.881,4.866-4.9l0,0c0.003,0,0.005,0,0.008,0c0.002,0,0.005,0,0.008,0l0,0    c2.687,0.02,4.867,2.209,4.867,4.9c0,2.689-2.181,4.881-4.867,4.899l0,0c-0.002,0-0.005,0-0.008,0c-0.003,0-0.005,0-0.008,0l0,0    C13.305,17.335,11.126,15.144,11.126,12.454z M21.58,26.309c-0.398,0-0.721-0.323-0.721-0.72c0-0.145,0.043-0.276,0.114-0.388    l0.993,0.992C21.855,26.266,21.722,26.309,21.58,26.309z M22.185,25.977l-0.992-0.995c0.111-0.07,0.244-0.113,0.387-0.113    c0.398,0,0.722,0.321,0.722,0.721C22.3,25.73,22.257,25.863,22.185,25.977z M22.185,23.957l-0.992-0.993    c0.111-0.071,0.244-0.114,0.387-0.114c0.398,0,0.722,0.322,0.722,0.72C22.3,23.712,22.257,23.845,22.185,23.957z M22.185,22.046    l-0.992-0.994c0.111-0.072,0.244-0.114,0.387-0.114c0.398,0,0.722,0.322,0.722,0.722C22.3,21.802,22.257,21.934,22.185,22.046z" fill="#1c96c8" data-original="#000000" style="" class=""/>
		<path d="M20.107,12.454c0-2.271-1.84-4.117-4.106-4.131c-2.267,0.014-4.106,1.86-4.106,4.131c0,2.27,1.839,4.116,4.106,4.131    C18.267,16.569,20.107,14.724,20.107,12.454z M13.046,12.454c0-1.636,1.316-2.96,2.947-2.979V9.474c0.003,0,0.005,0,0.008,0    c0.002,0,0.005,0,0.008,0v0.001c1.63,0.019,2.945,1.344,2.945,2.979c0,1.634-1.315,2.96-2.945,2.979l0,0c-0.002,0-0.005,0-0.008,0    s-0.005,0-0.008,0l0,0C14.362,15.414,13.046,14.088,13.046,12.454z" fill="#1c96c8" data-original="#000000" style="" class=""/>
	</g>
</g>
<g xmlns="http://www.w3.org/2000/svg">
</g>
<g xmlns="http://www.w3.org/2000/svg">
</g>
<g xmlns="http://www.w3.org/2000/svg">
</g>
<g xmlns="http://www.w3.org/2000/svg">
</g>
<g xmlns="http://www.w3.org/2000/svg">
</g>
<g xmlns="http://www.w3.org/2000/svg">
</g>
<g xmlns="http://www.w3.org/2000/svg">
</g>
<g xmlns="http://www.w3.org/2000/svg">
</g>
<g xmlns="http://www.w3.org/2000/svg">
</g>
<g xmlns="http://www.w3.org/2000/svg">
</g>
<g xmlns="http://www.w3.org/2000/svg">
</g>
<g xmlns="http://www.w3.org/2000/svg">
</g>
<g xmlns="http://www.w3.org/2000/svg">
</g>
<g xmlns="http://www.w3.org/2000/svg">
</g>
<g xmlns="http://www.w3.org/2000/svg">
</g>
</g></svg>
