<svg width="630" height="150" xmlns="http://www.w3.org/2000/svg">
    <style xmlns="http://www.w3.org/1999/xhtml">
    </style>
    <!-- Created with Method Draw - http://github.com/duopixel/Method-Draw/ -->
    <defs>
        <filter id="svg_87_blur">
            <feGaussianBlur stdDeviation="0" in="SourceGraphic" />
        </filter>
        <filter id="svg_86_blur">
            <feGaussianBlur stdDeviation="0.1" in="SourceGraphic" />
        </filter>
        <filter id="svg_77_blur">
            <feGaussianBlur stdDeviation="0.1" in="SourceGraphic" />
        </filter>
    </defs>
    <g>
        <defs>
            <clipPath id="svg_63" clipPathUnits="userSpaceOnUse">
                <path id="svg_74"
                    d="m695.43127,-508.78578c0,-80.323 123.787,-145.439 276.48,-145.439l0,0c152.693,0 276.481,65.116 276.481,145.439l0,0c0,80.322 -123.788,145.439 -276.481,145.439l0,0c-152.693,0 -276.48,-65.117 -276.48,-145.439" />
            </clipPath>
            <radialGradient spreadMethod="pad" r="1" id="svg_67" gradientUnits="userSpaceOnUse"
                gradientTransform="matrix(363.05789,0,0,-363.05789,177.52002,256.30713)" fy="0" fx="0" cy="0" cx="0">
                <stop stop-color="#aeb2d5" offset="0" id="svg_73" />
                <stop stop-color="#aeb2d5" offset="0.3" id="svg_72" />
                <stop stop-color="#484c89" offset="0.75" id="svg_71" />
                <stop stop-color="#484c89" offset="1" id="svg_70" />
            </radialGradient>
            <clipPath id="svg_58" clipPathUnits="userSpaceOnUse">
                <path id="svg_69" d="m683.91127,-346.78578l576,0l0,-324l-576,0l0,324z" />
            </clipPath>
            <clipPath id="svg_43" clipPathUnits="userSpaceOnUse">
                <path id="svg_68" d="m683.91127,-346.78578l576,0l0,-324l-576,0l0,324z" />
            </clipPath>
        </defs>
        <defs>
            <linearGradient id="svg_81" x1="0.66671" x2="0.41671" y1="0.16671" y2="0.75">
                <stop stop-color="#37aee2" offset="0" />
                <stop stop-color="#1e96c8" offset="1" />
            </linearGradient>
        </defs>
        <g id="svg_100">
            <text filter="url(#svg_87_blur)" xml:space="preserve" text-anchor="start" font-family="Roboto, sans-serif"
                font-size="101" id="svg_87" y="116.24137" x="220.35938" stroke-width="0" stroke="#000"
                fill="black">TeleBot</text>
            <g filter="url(#svg_86_blur)" id="svg_86">
                <g id="svg_83"
                    transform="matrix(1.425131574566627,0,0,1.425131574566627,37.86982424301511,63.116373738358504) ">
                    <circle id="svg_84" cy="-6.17966" cx="21.71009" r="34.6" fill="url(#svg_81)" />
                    <path id="svg_85"
                        d="m1.51009,-6.47966l23.3,-9.6c2.3,-1 10.1,-4.2 10.1,-4.2s3.6,-1.4 3.3,2c-0.1,1.4 -0.9,6.3 -1.7,11.6l-2.5,15.7s-0.2,2.3 -1.9,2.7c-1.7,0.4 -4.5,-1.4 -5,-1.8c-0.4,-0.3 -7.5,-4.8 -10.1,-7c-0.7,-0.6 -1.5,-1.8 0.1,-3.2c3.6,-3.3 7.9,-7.4 10.5,-10c1.2,-1.2 2.4,-4 -2.6,-0.6l-14.1,9.5s-1.6,1 -4.6,0.1c-3,-0.9 -6.5,-2.1 -6.5,-2.1s-2.4,-1.5 1.7,-3.1z"
                        fill="#fff" />
                </g>
            </g>
            <g stroke="null" transform="rotate(-17.907400131225586 120.83059692382821,106.30954742431642) "
                filter="url(#svg_77_blur)" id="svg_77">
                <g stroke="null"
                    transform="matrix(0.22906002488243707,0,0,-0.22906002488243707,-101.7955438171025,-10.23292773507643) "
                    id="svg_40">
                    <g stroke="null" id="svg_61">
                        <g stroke="null" id="svg_62" clip-path="url(#svg_63)">
                            <g stroke="null" id="svg_64">
                                <g stroke="null" id="svg_65">
                                    <path fill="url(#svg_67)" id="svg_66"
                                        d="m695.43127,-508.78578c0,-80.323 123.787,-145.439 276.48,-145.439l0,0c152.693,0 276.481,65.116 276.481,145.439l0,0c0,80.322 -123.788,145.439 -276.481,145.439l0,0c-152.693,0 -276.48,-65.117 -276.48,-145.439" />
                                </g>
                            </g>
                        </g>
                    </g>
                    <g stroke="null" id="svg_56">
                        <g stroke="null" id="svg_57" clip-path="url(#svg_58)">
                            <g stroke="null" id="svg_59">
                                <path fill="#777bb3" fill-rule="nonzero" id="svg_60"
                                    d="m971.91127,-643.42638c146.729,0 265.68,60.281 265.68,134.641c0,74.359 -118.951,134.641 -265.68,134.641c-146.729,0 -265.68,-60.282 -265.68,-134.641c0,-74.36 118.951,-134.641 265.68,-134.641" />
                            </g>
                        </g>
                    </g>
                    <g stroke="null" id="svg_41">
                        <g stroke="null" id="svg_42" clip-path="url(#svg_43)">
                            <g stroke="null" id="svg_54">
                                <path fill="#000000" fill-rule="nonzero" id="svg_55"
                                    d="m845.64568,-525.47918c12.065,0 21.072,2.225 26.771,6.611c5.638,4.341 9.532,11.862 11.573,22.353c1.903,9.806 1.178,16.653 -2.154,20.348c-3.407,3.774 -10.773,5.688 -21.893,5.688l-19.281,0l-10.689,-55l15.673,0zm-63.063,-67.75c-0.895,0 -1.745,0.4 -2.314,1.092c-0.57,0.691 -0.801,1.601 -0.63,2.48l28.328,145.751c0.274,1.409 1.509,2.427 2.945,2.427l61.054,0c19.188,0 33.47,-5.21 42.447,-15.487c9.025,-10.331 11.812,-24.772 8.283,-42.921c-1.436,-7.394 -3.906,-14.261 -7.341,-20.409c-3.439,-6.155 -7.984,-11.85 -13.511,-16.93c-6.616,-6.192 -14.104,-10.682 -22.236,-13.324c-8.003,-2.607 -18.281,-3.929 -30.548,-3.929l-24.722,0l-7.06,-36.322c-0.274,-1.41 -1.508,-2.428 -2.944,-2.428l-31.751,0z" />
                            </g>
                            <g stroke="null" id="svg_52">
                                <path fill="#ffffff" fill-rule="nonzero" id="svg_53"
                                    d="m843.13488,-473.47868l16.808,0c13.421,0 18.083,-2.945 19.667,-4.7c2.628,-2.914 3.124,-9.058 1.435,-17.767c-1.898,-9.75 -5.416,-16.663 -10.458,-20.545c-5.162,-3.974 -13.554,-5.988 -24.941,-5.988l-12.034,0l9.523,49zm28.831,35l-61.055,0c-2.872,0 -5.341,-2.036 -5.889,-4.855l-28.328,-145.751c-0.342,-1.759 0.12,-3.578 1.259,-4.961c1.14,-1.383 2.838,-2.183 4.63,-2.183l31.75,0c2.873,0 5.342,2.036 5.89,4.855l6.588,33.895l22.249,0c12.582,0 23.174,1.372 31.479,4.077c8.541,2.775 16.399,7.48 23.354,13.984c5.752,5.292 10.49,11.232 14.08,17.657c3.591,6.427 6.171,13.594 7.668,21.302c3.715,19.104 0.697,34.402 -8.969,45.466c-9.572,10.958 -24.614,16.514 -44.706,16.514m-45.633,-90l19.313,0c12.801,0 22.336,2.411 28.601,7.234c6.266,4.824 10.492,12.875 12.688,24.157c2.101,10.832 1.144,18.476 -2.871,22.929c-4.02,4.453 -12.059,6.68 -24.121,6.68l-21.754,0l-11.856,-61m45.633,84c18.367,0 31.766,-4.82 40.188,-14.461c8.421,-9.641 10.957,-23.098 7.597,-40.375c-1.383,-7.117 -3.722,-13.624 -7.015,-19.519c-3.297,-5.899 -7.602,-11.293 -12.922,-16.184c-6.34,-5.933 -13.383,-10.161 -21.133,-12.679c-7.75,-2.525 -17.621,-3.782 -29.621,-3.782l-27.196,0l-7.531,-38.75l-31.75,0l28.328,145.75l61.055,0" />
                            </g>
                            <g stroke="null" id="svg_50">
                                <path fill="#000000" fill-rule="nonzero" id="svg_51"
                                    d="m995.49428,-554.47918c-0.896,0 -1.745,0.4 -2.314,1.092c-0.571,0.691 -0.802,1.6 -0.631,2.48l12.531,64.489c1.192,6.133 0.898,10.535 -0.827,12.395c-1.056,1.137 -4.228,3.044 -13.607,3.044l-22.702,0l-15.755,-81.072c-0.274,-1.41 -1.509,-2.428 -2.945,-2.428l-31.5,0c-0.896,0 -1.745,0.4 -2.315,1.092c-0.57,0.691 -0.801,1.601 -0.63,2.48l28.328,145.751c0.274,1.409 1.509,2.427 2.945,2.427l31.5,0c0.896,0 1.745,-0.4 2.315,-1.091c0.57,-0.692 0.801,-1.601 0.63,-2.481l-6.836,-35.178l24.422,0c18.605,0 31.221,-3.28 38.569,-10.028c7.49,-6.884 9.827,-17.891 6.947,-32.719l-13.18,-67.825c-0.274,-1.41 -1.508,-2.428 -2.945,-2.428l-32,0z" />
                            </g>
                            <g stroke="null" id="svg_48">
                                <path fill="#ffffff" fill-rule="nonzero" id="svg_49"
                                    d="m977.57238,-399.72868l-31.5,0c-2.873,0 -5.342,-2.036 -5.89,-4.855l-28.328,-145.751c-0.342,-1.759 0.12,-3.578 1.26,-4.961c1.14,-1.383 2.838,-2.183 4.63,-2.183l31.5,0c2.872,0 5.342,2.036 5.89,4.855l15.283,78.645l20.229,0c9.363,0 11.328,-2 11.407,-2.086c0.568,-0.611 1.315,-3.441 0.082,-9.781l-12.531,-64.489c-0.342,-1.759 0.12,-3.578 1.26,-4.961c1.14,-1.383 2.838,-2.183 4.63,-2.183l32,0c2.872,0 5.342,2.036 5.89,4.855l13.179,67.825c3.093,15.921 0.447,27.864 -7.861,35.5c-7.928,7.281 -21.208,10.82 -40.599,10.82l-20.784,0l6.143,31.605c0.341,1.759 -0.12,3.579 -1.26,4.961c-1.14,1.383 -2.838,2.184 -4.63,2.184m0,-6l-7.531,-38.75l28.062,0c17.657,0 29.836,-3.082 36.539,-9.238c6.703,-6.16 8.711,-16.141 6.032,-29.938l-13.18,-67.824l-32,0l12.531,64.488c1.426,7.336 0.902,12.34 -1.574,15.008c-2.477,2.668 -7.746,4.004 -15.805,4.004l-25.176,0l-16.226,-83.5l-31.5,0l28.328,145.75l31.5,0" />
                            </g>
                            <g stroke="null" id="svg_46">
                                <path fill="#000000" fill-rule="nonzero" id="svg_47"
                                    d="m1093.46108,-525.47918c12.065,0 21.072,2.225 26.771,6.611c5.638,4.34 9.532,11.861 11.574,22.353c1.903,9.806 1.178,16.653 -2.155,20.348c-3.407,3.774 -10.773,5.688 -21.893,5.688l-19.281,0l-10.689,-55l15.673,0zm-63.062,-67.75c-0.895,0 -1.745,0.4 -2.314,1.092c-0.57,0.691 -0.802,1.601 -0.631,2.48l28.328,145.751c0.275,1.409 1.509,2.427 2.946,2.427l61.053,0c19.189,0 33.47,-5.21 42.448,-15.487c9.025,-10.33 11.811,-24.771 8.283,-42.921c-1.438,-7.394 -3.907,-14.261 -7.342,-20.409c-3.439,-6.155 -7.984,-11.85 -13.511,-16.93c-6.616,-6.192 -14.104,-10.682 -22.236,-13.324c-8.003,-2.607 -18.281,-3.929 -30.548,-3.929l-24.723,0l-7.057,-36.322c-0.275,-1.41 -1.509,-2.428 -2.946,-2.428l-31.75,0z" />
                            </g>
                            <g stroke="null" id="svg_44">
                                <path fill="#ffffff" fill-rule="nonzero" id="svg_45"
                                    d="m1090.95037,-473.47868l16.808,0c13.421,0 18.083,-2.945 19.667,-4.7c2.629,-2.914 3.125,-9.058 1.435,-17.766c-1.898,-9.751 -5.417,-16.664 -10.458,-20.546c-5.162,-3.974 -13.554,-5.988 -24.941,-5.988l-12.033,0l9.522,49zm28.831,35l-61.054,0c-2.872,0 -5.341,-2.036 -5.889,-4.855l-28.328,-145.751c-0.342,-1.759 0.12,-3.578 1.259,-4.961c1.14,-1.383 2.838,-2.183 4.63,-2.183l31.75,0c2.872,0 5.342,2.036 5.89,4.855l6.587,33.895l22.249,0c12.582,0 23.174,1.372 31.479,4.077c8.541,2.775 16.401,7.481 23.356,13.986c5.752,5.291 10.488,11.23 14.078,17.655c3.591,6.427 6.171,13.594 7.668,21.302c3.715,19.105 0.697,34.403 -8.969,45.467c-9.572,10.957 -24.613,16.513 -44.706,16.513m-45.632,-90l19.312,0c12.801,0 22.336,2.411 28.601,7.234c6.267,4.824 10.492,12.875 12.688,24.157c2.102,10.832 1.145,18.476 -2.871,22.929c-4.02,4.453 -12.059,6.68 -24.121,6.68l-21.754,0l-11.855,-61m45.632,84c18.367,0 31.766,-4.82 40.188,-14.461c8.422,-9.641 10.957,-23.098 7.597,-40.375c-1.383,-7.117 -3.722,-13.624 -7.015,-19.519c-3.297,-5.899 -7.602,-11.293 -12.922,-16.184c-6.34,-5.933 -13.383,-10.161 -21.133,-12.679c-7.75,-2.525 -17.621,-3.782 -29.621,-3.782l-27.196,0l-7.53,-38.75l-31.75,0l28.328,145.75l61.054,0" />
                            </g>
                        </g>
                    </g>
                </g>
            </g>
        </g>
    </g>
</svg>